<?xml version="1.0" encoding="UTF-8" standalone="no"?><!DOCTYPE svg PUBLIC "-//W3C//DTD SVG 1.1//EN" "http://www.w3.org/Graphics/SVG/1.1/DTD/svg11.dtd"><svg width="100%" height="100%" viewBox="0 0 128 128" version="1.1" xmlns="http://www.w3.org/2000/svg" xmlns:xlink="http://www.w3.org/1999/xlink" xml:space="preserve" xmlns:serif="http://www.serif.com/" style="fill-rule:evenodd;clip-rule:evenodd;stroke-linejoin:round;stroke-miterlimit:2;"><path d="M54.472,2.553c5.896,-3.404 13.16,-3.404 19.056,0c10.759,6.212 28.163,16.261 38.923,22.472c5.895,3.404 9.528,9.695 9.528,16.503l-0,44.944c-0,6.808 -3.633,13.099 -9.528,16.503c-10.76,6.211 -28.164,16.26 -38.923,22.472c-5.896,3.404 -13.16,3.404 -19.056,-0c-10.759,-6.212 -28.163,-16.261 -38.923,-22.472c-5.895,-3.404 -9.528,-9.695 -9.528,-16.503l0,-44.944c0,-6.808 3.633,-13.099 9.528,-16.503c10.76,-6.211 28.164,-16.26 38.923,-22.472Zm-13.298,87.718c-3.95,-0 -7.153,-3.202 -7.153,-7.153l-0,-34.78c0,-3.951 3.203,-7.153 7.153,-7.153l11.834,-0c1.343,-0 2.62,0.583 3.5,1.597c0.722,0.832 1.653,1.905 2.612,3.01c1.228,1.415 3.009,2.228 4.883,2.23c1.874,0.002 3.656,-0.809 4.887,-2.221c0.877,-1.007 1.731,-1.988 2.425,-2.784c1.013,-1.164 2.481,-1.832 4.024,-1.832l11.487,-0c3.95,-0 7.153,3.202 7.153,7.153l0,34.78c-0,3.951 -3.203,7.153 -7.153,7.153l-7.439,-0c-3.95,-0 -7.152,-3.202 -7.152,-7.153l-0,-14.424c-0,-0.467 -0.291,-0.885 -0.728,-1.048c-0.438,-0.164 -0.931,-0.038 -1.238,0.314c-0.389,0.448 -0.813,0.938 -1.252,1.444c-1.262,1.453 -3.092,2.288 -5.017,2.288c-1.925,0 -3.755,-0.835 -5.017,-2.288c-0.356,-0.411 -0.703,-0.811 -1.029,-1.186c-0.341,-0.393 -0.89,-0.533 -1.378,-0.351c-0.487,0.182 -0.811,0.648 -0.811,1.168l0,14.083c0,3.951 -3.202,7.153 -7.152,7.153l-7.439,-0Z" style="fill:#3286ff;"/></svg>